<?xml version="1.0" encoding="UTF-8" standalone="no"?>
<svg width="850px" height="1100px" viewBox="0 0 850 1100" version="1.1" xmlns="http://www.w3.org/2000/svg" xmlns:xlink="http://www.w3.org/1999/xlink" xmlns:sketch="http://www.bohemiancoding.com/sketch/ns">
    <title>Untitled 22</title>
    <description>Created with Sketch (http://www.bohemiancoding.com/sketch)</description>
    <defs></defs>
    <g id="Page-1" stroke="none" stroke-width="1" fill="none" fill-rule="evenodd" sketch:type="MSPage">
        <rect id="Rectangle-1" fill="#0071BC" sketch:type="MSShapeGroup" x="0" y="0" width="850" height="1100"></rect>
        <g id="FullLogoWhite-2" sketch:type="MSLayerGroup" transform="translate(82.000000, 929.000000)" fill="#FFFFFF">
            <g id="Group" sketch:type="MSShapeGroup">
                <path d="M46.9980417,0 C21.0825382,0 0,20.859125 0,46.5 C0,72.140875 21.0825382,93 46.9980417,93 L48.5685596,93 L34.5631432,60.159375 C39.4196075,52.9635 47.6560143,54.726625 47.6560143,54.726625 C47.824424,59.322375 47.9066706,62.6665 47.9066706,62.6665 C55.8375901,58.78375 63.1653681,58.942625 70.1719928,56.214625 C78.3300696,53.041 72.4083163,28.09375 71.4526895,28.702125 C61.406858,35.095875 55.0582059,34.379 55.0582059,34.379 C55.8219241,32.17025 55.9237532,30.15525 54.4119828,27.384625 C52.9002125,24.614 48.7683013,23.281 39.4901046,23.281 C28.711887,23.281 19.5746844,29.709625 19.5746844,29.709625 L39.7720928,87.59825 C19.9545852,84.199875 4.8368818,67.064625 4.8368818,46.503875 C4.8368818,23.501875 23.7496771,4.7895 46.9980417,4.7895 C70.2464064,4.7895 89.1592017,23.501875 89.1592017,46.503875 C89.1592017,57.640625 83.5468522,67.002625 73.75951,72.1835 C66.4826466,76.03525 57.976001,76.88775 49.8100912,74.861125 C48.1220782,74.442625 50.7304696,80.007125 52.4654806,80.26675 C60.5804758,81.4835 68.8286321,80.224125 76.0428315,76.403375 C87.287113,70.451375 94,59.272 94,46.503875 C93.9960835,20.859125 72.9135453,0 46.9980417,0 L46.9980417,0 Z" id="Shape"></path>
                <g transform="translate(117.000000, 16.000000)">
                    <path d="M12.2509804,42.1191639 L12.2509804,65 L0,65 L0,0 L21.4509804,0 C25.854902,0 29.6627451,0.510957599 32.8823529,1.52900191 C36.1019608,2.54704621 38.7568627,3.97153406 40.8509804,5.79859457 C42.945098,7.62565507 44.4941176,9.81270843 45.4980392,12.3636255 C46.4980392,14.9106717 47,17.6977132 47,20.7247499 C47,23.8717842 46.4705882,26.7555979 45.4078431,29.3800619 C44.345098,32.0006551 42.7529412,34.2573845 40.627451,36.1463792 C38.5019608,38.035374 35.8470588,39.5024416 32.6588235,40.5514531 C29.4705882,41.6004645 25.7372549,42.1230348 21.454902,42.1230348 L12.2509804,42.1230348 L12.2509804,42.1191639 Z M12,32 L20.9963396,32 C23.1936552,32 25.1071989,31.7252364 26.7408053,31.1795255 C28.3744117,30.6338145 29.7242461,29.8515016 30.7941433,28.8287705 C31.8640404,27.8098556 32.6655046,26.5696035 33.1985358,25.1041978 C33.731567,23.6426083 34,22.0092915 34,20.2080637 C34,18.4946076 33.731567,16.9414302 33.1985358,15.5561639 C32.6655046,14.1670815 31.8640404,12.9840717 30.7941433,12.0109507 C29.7242461,11.0378298 28.3744117,10.2898623 26.7408053,9.7746806 C25.1071989,9.25949892 23.1936552,9 20.9963396,9 L12,9 L12,32 L12,32 Z M54,64.9961275 L54,18.8558128 L60.6517446,18.8558128 C61.8130349,18.8558128 62.6227781,19.0649254 63.0849243,19.4870232 C63.5431205,19.9052484 63.8512179,20.6255253 64.0013167,21.6439812 L64.6886109,27.220318 C66.3712969,24.3701903 68.3423305,22.1241658 70.6056616,20.4744995 C72.8689928,18.8248332 75.4088216,18 78.2211982,18 C80.5437788,18 82.4713627,18.5227816 84,19.5722172 L82.5306122,27.8941254 C82.439763,28.4323968 82.2383147,28.81577 81.9341672,29.0403724 C81.6300197,29.2649749 81.2152732,29.3772761 80.6938776,29.3772761 C80.2356814,29.3772761 79.6076366,29.2727198 78.8136932,29.0636072 C78.0197498,28.8544945 76.9651086,28.7499382 75.6497696,28.7499382 C73.2955892,28.7499382 71.277156,29.3888935 69.59447,30.6629315 C67.9117841,31.9369696 66.4897959,33.8034934 65.3285056,36.2625031 L65.3285056,65 L54,65 L54,64.9961275 Z M109.068296,18 C112.541614,18 115.691016,18.5591853 118.516501,19.6814664 C121.341987,20.7998371 123.749894,22.3913646 125.744125,24.4482281 C127.738356,26.5050916 129.279885,29.0194705 130.368711,31.9874542 C131.457538,34.9554379 132,38.271446 132,41.9315682 C132,45.6268839 131.457538,48.9546232 130.368711,51.9226069 C129.279885,54.8905906 127.738356,57.4167006 125.744125,59.5048473 C123.749894,61.5929939 121.341987,63.2001629 118.516501,64.3185336 C115.691016,65.4369043 112.541614,66 109.068296,66 C105.594978,66 102.43777,65.4408147 99.5966743,64.3185336 C96.7555782,63.2001629 94.3320607,61.5929939 92.3222194,59.5048473 C90.312378,57.4167006 88.7552388,54.8866802 87.6547043,51.9226069 C86.5502672,48.9546232 86,45.6268839 86,41.9315682 C86,38.2675356 86.5502672,34.9515275 87.6547043,31.9874542 C88.7591414,29.0194705 90.312378,26.509002 92.3222194,24.4482281 C94.3320607,22.3913646 96.7555782,20.7998371 99.5966743,19.6814664 C102.43777,18.5630957 105.594978,18 109.068296,18 L109.068296,18 Z M109.568627,58 C113.454902,58 116.333333,56.6889764 118.2,54.0669291 C120.066667,51.4448819 121,47.6062992 121,42.5433071 C121,37.484252 120.066667,33.6259843 118.2,30.976378 C116.333333,28.3228346 113.454902,27 109.568627,27 C105.623529,27 102.705882,28.3346457 100.823529,31 C98.9411765,33.6653543 98,37.515748 98,42.5433071 C98,47.5708661 98.9411765,51.4055118 100.823529,54.0433071 C102.709804,56.6811024 105.623529,58 109.568627,58 L109.568627,58 Z M149.049894,19 L149.049894,48.4094703 C149.049894,51.2370052 149.697168,53.423684 150.995569,54.9733906 C152.29397,56.5230973 154.239646,57.2960086 156.836448,57.2960086 C158.747448,57.2960086 160.535157,56.8687712 162.207282,56.0104124 C163.879407,55.1520535 165.459064,53.9713247 166.950106,52.4682258 L166.950106,19 L178,19 L178,65.2775804 L171.24215,65.2775804 C169.8089,65.2775804 168.868811,64.6017684 168.421884,63.2462606 L167.662878,59.548715 C166.707378,60.5119412 165.724908,61.3897199 164.711616,62.185935 C163.698324,62.9821502 162.615681,63.6579622 161.46754,64.2172548 C160.319399,64.7726634 159.082643,65.2076688 157.753419,65.5261549 C156.424196,65.8446409 155.002504,66 153.48064,66 C150.976305,66 148.760932,65.5727626 146.834521,64.7144038 C144.911963,63.856045 143.293778,62.6481283 141.979965,61.0828857 C140.666153,59.5176432 139.675978,57.6611024 139.005587,55.5132634 C138.335196,53.3615404 138,50.9961987 138,48.4094703 L138,19 L149.049894,19 L149.049894,19 Z M222.116391,65.3212093 C220.657302,65.3212093 219.700265,64.6424187 219.24528,63.2809363 L218.33531,58.7946762 C217.362583,59.8830819 216.346712,60.8622569 215.283773,61.7400034 C214.220834,62.61775 213.075527,63.3706615 211.84393,64.0065401 C210.612332,64.6424187 209.294445,65.1300556 207.882423,65.4772532 C206.4704,65.8244507 204.944632,66 203.305117,66 C200.755633,66 198.417951,65.4733521 196.292073,64.4161551 C194.166195,63.3589582 192.338411,61.8258275 190.804798,59.8167632 C189.271185,57.8076989 188.086655,55.3227009 187.251209,52.3656704 C186.415762,49.4047387 186,46.0224887 186,42.2189203 C186,38.7742528 186.470674,35.5753543 187.412022,32.6144226 C188.35337,29.6534909 189.706558,27.0865699 191.467664,24.9136596 C193.228769,22.7407492 195.338958,21.0398715 197.79823,19.8188285 C200.257503,18.5938845 203.022713,17.9853135 206.089939,17.9853135 C208.70218,17.9853135 210.93396,18.3988297 212.785278,19.2297631 C214.636596,20.0606965 216.2918,21.1686077 217.750889,22.5612988 L217.750889,-2 L229,-2 L229,65.3212093 L222.116391,65.3212093 L222.116391,65.3212093 Z M206.456458,56 C208.778687,56 210.75414,55.526175 212.382817,54.578525 C214.011494,53.630875 215.550555,52.2858235 217,50.5395491 L217,30.1268628 C215.733684,28.617501 214.354374,27.5513947 212.858173,26.9323653 C211.365868,26.3095147 209.756673,26 208.038379,26 C206.34736,26 204.819988,26.3095147 203.444574,26.9323653 C202.073057,27.5552159 200.911942,28.4914024 199.961231,29.7485671 C199.01052,31.0057318 198.278005,32.6029805 197.767582,34.5403133 C197.253263,36.4776462 197,38.7627054 197,41.395491 C197,44.058846 197.218196,46.3133359 197.654588,48.1627818 C198.09098,50.0122277 198.718293,51.5215896 199.532632,52.6908674 C200.346971,53.8601452 201.344438,54.7008024 202.517241,55.2204815 C203.697838,55.7439817 205.007013,56 206.456458,56 L206.456458,56 Z" id="Proud_1_"></path>
                    <path d="M287.420147,54.5981197 C287.720221,54.5981197 287.977426,54.7025467 288.187868,54.9114007 L290,56.8413662 C288.671103,58.2491967 287.225294,59.5139236 285.654779,60.6355468 C284.084265,61.7571701 282.373456,62.7163513 280.518456,63.5092229 C278.663456,64.3020945 276.625294,64.9170534 274.407868,65.3502321 C272.190441,65.7834107 269.754779,66 267.096985,66 C262.662132,66 258.5975,65.2303344 254.899191,63.6871355 C251.204779,62.1439367 248.036471,59.9587052 245.394265,57.1275735 C242.755956,54.2964417 240.694412,50.8774247 239.217426,46.8627871 C237.740441,42.8520171 237,38.3887302 237,33.476794 C237,28.6538141 237.759926,24.2524099 239.283676,20.2725812 C240.807426,16.2888849 242.950809,12.8698679 245.709926,10.0077948 C248.469044,7.14572177 251.77375,4.93341664 255.620147,3.35927645 C259.466544,1.78900393 263.714338,1 268.359632,1 C270.682279,1 272.810074,1.17404498 274.739118,1.51826729 C276.672059,1.86248959 278.4725,2.35755087 280.148235,2.99958348 C281.823971,3.64161609 283.398382,4.44609068 284.879265,5.40140426 C286.35625,6.36058551 287.805956,7.46673807 289.224485,8.72372962 L287.821544,10.7465191 C287.579926,11.1062121 287.201912,11.2841247 286.691397,11.2841247 C286.418603,11.2841247 286.071765,11.1255504 285.650882,10.8122694 C285.23,10.4989885 284.692206,10.1083542 284.045294,9.6442342 C283.398382,9.18011424 282.611176,8.66958229 281.691471,8.11650601 C280.771765,7.56342973 279.676691,7.05289777 278.410147,6.58877782 C277.143603,6.12465786 275.678309,5.73402356 274.022059,5.42074259 C272.361912,5.10746162 270.475735,4.9488873 268.363529,4.9488873 C264.470368,4.9488873 260.896765,5.61412591 257.638824,6.94847078 C254.380882,8.28281566 251.575,10.1818398 249.221176,12.6532786 C246.867353,15.1247174 245.035735,18.1182911 243.722426,21.6378674 C242.409118,25.1574438 241.754412,29.1024634 241.754412,33.4729263 C241.754412,37.9632869 242.401324,41.9779246 243.699044,45.5091039 C244.996765,49.0441509 246.793309,52.0299893 249.084779,54.4704867 C251.37625,56.9109842 254.084706,58.7829347 257.210147,60.0863382 C260.331691,61.3897418 263.718235,62.0395097 267.369779,62.0395097 C269.66125,62.0395097 271.707206,61.8886707 273.50375,61.5908604 C275.300294,61.2930501 276.952647,60.8405331 278.460809,60.2449125 C279.968971,59.6454243 281.371912,58.9105677 282.669632,58.0442104 C283.967353,57.1739855 285.249485,56.1567892 286.516029,54.988754 C286.668015,54.8688564 286.808309,54.7721647 286.944706,54.698679 C287.081103,54.6367964 287.236985,54.5981197 287.420147,54.5981197 L287.420147,54.5981197 Z M306,21 L306,66 L302,66 L302,21 L306,21 L306,21 Z M308,5.04696673 C308,5.59099804 307.887105,6.09980431 307.661314,6.56947162 C307.435523,7.03913894 307.139659,7.45401174 306.781509,7.81800391 C306.419465,8.18199609 305.999027,8.46771037 305.516302,8.68297456 C305.033577,8.89432485 304.523601,9 303.978589,9 C303.43747,9 302.923601,8.89432485 302.440876,8.68297456 C301.958151,8.47162427 301.537713,8.18199609 301.175669,7.81800391 C300.813625,7.45401174 300.52944,7.03913894 300.315328,6.56947162 C300.105109,6.09980431 300,5.59099804 300,5.04696673 C300,4.50293542 300.105109,3.97847358 300.315328,3.47749511 C300.525547,2.97651663 300.813625,2.54598826 301.175669,2.18199609 C301.537713,1.81800391 301.958151,1.53228963 302.440876,1.31702544 C302.923601,1.10567515 303.433577,1 303.978589,1 C304.519708,1 305.033577,1.10567515 305.516302,1.31702544 C305.999027,1.52837573 306.419465,1.81800391 306.781509,2.18199609 C307.143552,2.54598826 307.435523,2.97651663 307.661314,3.47749511 C307.887105,3.97847358 308,4.50293542 308,5.04696673 L308,5.04696673 Z M333.188863,66 C330.158726,66 327.795063,65.1618439 326.101751,63.489394 C324.408439,61.8130817 323.559845,59.2290888 323.559845,55.7296904 L323.559845,25.2277591 L317.123708,25.2277591 C316.794346,25.2277591 316.523106,25.1389223 316.313863,24.9573862 C316.104621,24.7797125 316,24.5247895 316,24.1964795 L316,22.535617 L323.648967,21.9987336 L324.730052,6.03127968 C324.761051,5.76090673 324.873421,5.52143355 325.067164,5.31286013 C325.260907,5.10428671 325.524397,5 325.85376,5 L327.876435,5 L327.876435,22.0450833 L341.961538,22.0450833 L341.961538,25.2316216 L327.876435,25.2316216 L327.876435,55.5095295 C327.876435,56.7339328 328.035304,57.7883873 328.349168,58.6728931 C328.663031,59.5535364 329.10089,60.2796809 329.654994,60.8474641 C330.209099,61.4152473 330.863949,61.8323941 331.611797,62.102767 C332.363519,62.37314 333.173364,62.5083265 334.041332,62.5083265 C335.122417,62.5083265 336.052382,62.3499652 336.831228,62.037105 C337.610075,61.7242449 338.288175,61.380485 338.857778,61.0058254 C339.427382,60.6311657 339.892365,60.2874058 340.252727,59.9745457 C340.613088,59.6616856 340.895953,59.5033243 341.10907,59.5033243 C341.349311,59.5033243 341.589552,59.6539606 341.829793,59.9513709 L343,61.8362566 C341.860792,63.0915596 340.411596,64.0996644 338.656286,64.8644336 C336.900976,65.6214779 335.075918,66 333.188863,66 L333.188863,66 Z M361.139772,79.5732549 C360.960701,79.9874712 360.727129,80.3288162 360.439058,80.5972897 C360.150987,80.8657632 359.738345,81 359.197238,81 L356.121883,81 L364.032162,63.6719509 L345,21 L348.569747,21 C349.021318,21 349.375568,21.1112248 349.632496,21.3336743 C349.889424,21.5561238 350.076281,21.8015853 350.19696,22.0700588 L365.340161,56.5458962 C365.519233,56.9907952 365.67884,57.4433649 365.815089,57.9036052 C365.951339,58.3638456 366.079804,58.8317566 366.200482,59.3073383 C366.352303,58.8317566 366.508017,58.3638456 366.67541,57.9036052 C366.842803,57.4433649 367.014088,56.9907952 367.197053,56.5458962 L382.161183,22.0700588 C382.313004,21.7440552 382.523218,21.4832524 382.795718,21.2914856 C383.068218,21.0997187 383.367967,21.0038353 383.69886,21.0038353 L387,21.0038353 L361.139772,79.5732549 L361.139772,79.5732549 Z" id="City_1_"></path>
                </g>
            </g>
        </g>
        <path d="M82.5,645.5 L770.710022,645.5" id="Line" stroke="#FFFFFF" stroke-linecap="square" sketch:type="MSShapeGroup"></path>
        <path d="M126.55,251.11 C129.886683,251.11 132.792488,250.807503 135.2675,250.2025 C137.742512,249.597497 140.098322,248.763339 142.335,247.7 L142.335,233.235 L132.38,233.235 C131.426662,233.235 130.675003,232.969169 130.125,232.4375 C129.574997,231.905831 129.3,231.255004 129.3,230.485 L129.3,222.125 L155.755,222.125 L155.755,254.3 C153.738323,255.766674 151.639178,257.040828 149.4575,258.1225 C147.275822,259.204172 144.947512,260.09333 142.4725,260.79 C139.997488,261.48667 137.348347,262.009165 134.525,262.3575 C131.701653,262.705835 128.65835,262.88 125.395,262.88 C119.601638,262.88 114.266691,261.871677 109.39,259.855 C104.513309,257.838323 100.296684,255.033351 96.74,251.44 C93.1833156,247.846649 90.4058433,243.556692 88.4075,238.57 C86.4091567,233.583308 85.41,228.138363 85.41,222.235 C85.41,216.258303 86.381657,210.776692 88.325,205.79 C90.268343,200.803308 93.0274821,196.513351 96.6025,192.92 C100.177518,189.326649 104.513308,186.54001 109.61,184.56 C114.706692,182.57999 120.426635,181.59 126.77,181.59 C133.260032,181.59 138.879143,182.55249 143.6275,184.4775 C148.375857,186.40251 152.399984,188.904985 155.7,191.985 L151.41,198.695 C150.566662,200.051673 149.44834,200.73 148.055,200.73 C147.174996,200.73 146.276671,200.43667 145.36,199.85 C144.186661,199.15333 142.985839,198.45667 141.7575,197.76 C140.529161,197.06333 139.172507,196.458336 137.6875,195.945 C136.202493,195.431664 134.534176,195.010002 132.6825,194.68 C130.830824,194.349998 128.695012,194.185 126.275,194.185 C122.351647,194.185 118.804183,194.844993 115.6325,196.165 C112.460817,197.485007 109.756678,199.373321 107.52,201.83 C105.283322,204.286679 103.560006,207.238316 102.35,210.685 C101.139994,214.131684 100.535,217.981645 100.535,222.235 C100.535,226.818356 101.17666,230.897482 102.46,234.4725 C103.74334,238.047518 105.539988,241.063321 107.85,243.52 C110.160012,245.976679 112.909984,247.855827 116.1,249.1575 C119.290016,250.459173 122.773314,251.11 126.55,251.11 Z M180.42,205.57 L180.42,241.43 C180.42,244.876684 181.217492,247.544157 182.8125,249.4325 C184.407508,251.320843 186.799984,252.265 189.99,252.265 C192.336678,252.265 194.536656,251.742505 196.59,250.6975 C198.643344,249.652495 200.586657,248.213342 202.42,246.38 L202.42,205.57 L216.005,205.57 L216.005,262 L207.7,262 C205.939991,262 204.785003,261.175008 204.235,259.525 L203.3,255.015 C202.126661,256.188339 200.916673,257.260828 199.67,258.2325 C198.423327,259.204172 197.094174,260.029163 195.6825,260.7075 C194.270826,261.385837 192.749175,261.917498 191.1175,262.3025 C189.485825,262.687502 187.735009,262.88 185.865,262.88 C182.784985,262.88 180.062512,262.357505 177.6975,261.3125 C175.332488,260.267495 173.343341,258.791676 171.73,256.885 C170.116659,254.978324 168.897504,252.71418 168.0725,250.0925 C167.247496,247.47082 166.835,244.583349 166.835,241.43 L166.835,205.57 L180.42,205.57 Z M244.19,205.57 L244.19,262 L230.605,262 L230.605,205.57 L244.19,205.57 Z M246.225,189.125 C246.225,190.298339 245.986669,191.398328 245.51,192.425 C245.033331,193.451672 244.400837,194.349996 243.6125,195.12 C242.824163,195.890004 241.898339,196.504164 240.835,196.9625 C239.771661,197.420836 238.635006,197.65 237.425,197.65 C236.251661,197.65 235.142505,197.420836 234.0975,196.9625 C233.052495,196.504164 232.145004,195.890004 231.375,195.12 C230.604996,194.349996 229.990836,193.451672 229.5325,192.425 C229.074164,191.398328 228.845,190.298339 228.845,189.125 C228.845,187.914994 229.074164,186.778339 229.5325,185.715 C229.990836,184.651661 230.604996,183.735004 231.375,182.965 C232.145004,182.194996 233.052495,181.580836 234.0975,181.1225 C235.142505,180.664164 236.251661,180.435 237.425,180.435 C238.635006,180.435 239.771661,180.664164 240.835,181.1225 C241.898339,181.580836 242.824163,182.194996 243.6125,182.965 C244.400837,183.735004 245.033331,184.651661 245.51,185.715 C245.986669,186.778339 246.225,187.914994 246.225,189.125 Z M298.445,262 C296.684991,262 295.530003,261.175008 294.98,259.525 L293.88,254.08 C292.706661,255.400007 291.47834,256.591661 290.195,257.655 C288.91166,258.718339 287.527507,259.634996 286.0425,260.405 C284.557493,261.175004 282.962508,261.770831 281.2575,262.1925 C279.552491,262.614169 277.71001,262.825 275.73,262.825 C272.649985,262.825 269.826679,262.18334 267.26,260.9 C264.69332,259.61666 262.484176,257.755846 260.6325,255.3175 C258.780824,252.879154 257.350838,249.863351 256.3425,246.27 C255.334162,242.676649 254.83,238.570023 254.83,233.95 C254.83,229.769979 255.398328,225.883351 256.535,222.29 C257.671672,218.696649 259.303323,215.580013 261.43,212.94 C263.556677,210.299987 266.104985,208.237507 269.075,206.7525 C272.045015,205.267493 275.381648,204.525 279.085,204.525 C282.238349,204.525 284.933322,205.029162 287.17,206.0375 C289.406678,207.045838 291.404991,208.393325 293.165,210.08 L293.165,180.27 L306.75,180.27 L306.75,262 L298.445,262 Z M280.35,252.045 C283.173347,252.045 285.57499,251.458339 287.555,250.285 C289.53501,249.111661 291.404991,247.443344 293.165,245.28 L293.165,219.98 C291.624992,218.109991 289.947509,216.790004 288.1325,216.02 C286.317491,215.249996 284.36501,214.865 282.275,214.865 C280.221656,214.865 278.360842,215.249996 276.6925,216.02 C275.024158,216.790004 273.612506,217.954159 272.4575,219.5125 C271.302494,221.070841 270.413336,223.050821 269.79,225.4525 C269.166664,227.854179 268.855,230.68665 268.855,233.95 C268.855,237.250016 269.120831,240.045822 269.6525,242.3375 C270.184169,244.629178 270.944995,246.499159 271.935,247.9475 C272.925005,249.395841 274.134993,250.44083 275.565,251.0825 C276.995007,251.72417 278.589991,252.045 280.35,252.045 Z M343.955,204.69 C347.511684,204.69 350.784152,205.258328 353.7725,206.395 C356.760848,207.531672 359.336656,209.190822 361.5,211.3725 C363.663344,213.554178 365.349994,216.230817 366.56,219.4025 C367.770006,222.574183 368.375,226.19498 368.375,230.265 C368.375,231.291672 368.329167,232.144163 368.2375,232.8225 C368.145833,233.500837 367.980834,234.032498 367.7425,234.4175 C367.504165,234.802502 367.183335,235.077499 366.78,235.2425 C366.376665,235.407501 365.863336,235.49 365.24,235.49 L330.37,235.49 C330.773335,241.283362 332.331653,245.536653 335.045,248.25 C337.758347,250.963347 341.351644,252.32 345.825,252.32 C348.025011,252.32 349.922492,252.063336 351.5175,251.55 C353.112508,251.036664 354.505827,250.468336 355.6975,249.845 C356.889173,249.221664 357.934162,248.653336 358.8325,248.14 C359.730838,247.626664 360.601662,247.37 361.445,247.37 C361.995003,247.37 362.471665,247.479999 362.875,247.7 C363.278335,247.920001 363.626665,248.231665 363.92,248.635 L367.88,253.585 C366.376659,255.345009 364.690009,256.820827 362.82,258.0125 C360.949991,259.204173 358.99751,260.157496 356.9625,260.8725 C354.92749,261.587504 352.855844,262.091665 350.7475,262.385 C348.639156,262.678335 346.59501,262.825 344.615,262.825 C340.691647,262.825 337.04335,262.174173 333.67,260.8725 C330.29665,259.570827 327.363346,257.645846 324.87,255.0975 C322.376654,252.549154 320.415007,249.395852 318.985,245.6375 C317.554993,241.879148 316.84,237.525025 316.84,232.575 C316.84,228.724981 317.463327,225.104184 318.71,221.7125 C319.956673,218.320816 321.744155,215.369179 324.0725,212.8575 C326.400845,210.345821 329.242483,208.356674 332.5975,206.89 C335.952517,205.423326 339.738312,204.69 343.955,204.69 Z M344.23,214.425 C340.26998,214.425 337.171678,215.543322 334.935,217.78 C332.698322,220.016678 331.268336,223.188313 330.645,227.295 L356.165,227.295 C356.165,225.534991 355.926669,223.875841 355.45,222.3175 C354.973331,220.759159 354.240005,219.393339 353.25,218.22 C352.259995,217.046661 351.013341,216.120837 349.51,215.4425 C348.006659,214.764163 346.246677,214.425 344.23,214.425 Z M417.595,262.88 C412.718309,262.88 408.960013,261.495847 406.32,258.7275 C403.679987,255.959153 402.36,252.136691 402.36,247.26 L402.36,215.745 L396.64,215.745 C395.906663,215.745 395.274169,215.506669 394.7425,215.03 C394.210831,214.553331 393.945,213.838338 393.945,212.885 L393.945,207.495 L403.02,206.01 L405.88,190.61 C406.026667,189.876663 406.365831,189.308335 406.8975,188.905 C407.429169,188.501665 408.098329,188.3 408.905,188.3 L415.945,188.3 L415.945,206.065 L430.795,206.065 L430.795,215.745 L415.945,215.745 L415.945,246.325 C415.945,248.085009 416.384996,249.459995 417.265,250.45 C418.145004,251.440005 419.318326,251.935 420.785,251.935 C421.628337,251.935 422.334164,251.834168 422.9025,251.6325 C423.470836,251.430832 423.965831,251.220001 424.3875,251 C424.809169,250.779999 425.184998,250.569168 425.515,250.3675 C425.845002,250.165832 426.174998,250.065 426.505,250.065 C426.908335,250.065 427.238332,250.165832 427.495,250.3675 C427.751668,250.569168 428.026665,250.871665 428.32,251.275 L432.39,257.875 C430.40999,259.525008 428.136679,260.771662 425.57,261.615 C423.00332,262.458338 420.345014,262.88 417.595,262.88 Z M464.92,204.69 C469.136688,204.69 472.959149,205.368327 476.3875,206.725 C479.81585,208.081673 482.739988,210.006654 485.16,212.5 C487.580012,214.993346 489.449993,218.036649 490.77,221.63 C492.090007,225.223351 492.75,229.238311 492.75,233.675 C492.75,238.148356 492.090007,242.181649 490.77,245.775 C489.449993,249.368351 487.580012,252.429987 485.16,254.96 C482.739988,257.490013 479.81585,259.433327 476.3875,260.79 C472.959149,262.146673 469.136688,262.825 464.92,262.825 C460.703312,262.825 456.871684,262.146673 453.425,260.79 C449.978316,259.433327 447.035845,257.490013 444.5975,254.96 C442.159154,252.429987 440.27084,249.368351 438.9325,245.775 C437.59416,242.181649 436.925,238.148356 436.925,233.675 C436.925,229.238311 437.59416,225.223351 438.9325,221.63 C440.27084,218.036649 442.159154,214.993346 444.5975,212.5 C447.035845,210.006654 449.978316,208.081673 453.425,206.725 C456.871684,205.368327 460.703312,204.69 464.92,204.69 Z M464.92,252.375 C469.613357,252.375 473.087489,250.798349 475.3425,247.645 C477.597511,244.491651 478.725,239.871697 478.725,233.785 C478.725,227.698303 477.597511,223.060016 475.3425,219.87 C473.087489,216.679984 469.613357,215.085 464.92,215.085 C460.153309,215.085 456.633345,216.689151 454.36,219.8975 C452.086655,223.105849 450.95,227.73497 450.95,233.785 C450.95,239.83503 452.086655,244.445817 454.36,247.6175 C456.633345,250.789183 460.153309,252.375 464.92,252.375 Z M126.55,383.11 C129.886683,383.11 132.792488,382.807503 135.2675,382.2025 C137.742512,381.597497 140.098322,380.763339 142.335,379.7 L142.335,365.235 L132.38,365.235 C131.426662,365.235 130.675003,364.969169 130.125,364.4375 C129.574997,363.905831 129.3,363.255004 129.3,362.485 L129.3,354.125 L155.755,354.125 L155.755,386.3 C153.738323,387.766674 151.639178,389.040828 149.4575,390.1225 C147.275822,391.204172 144.947512,392.09333 142.4725,392.79 C139.997488,393.48667 137.348347,394.009165 134.525,394.3575 C131.701653,394.705835 128.65835,394.88 125.395,394.88 C119.601638,394.88 114.266691,393.871677 109.39,391.855 C104.513309,389.838323 100.296684,387.033351 96.74,383.44 C93.1833156,379.846649 90.4058433,375.556692 88.4075,370.57 C86.4091567,365.583308 85.41,360.138363 85.41,354.235 C85.41,348.258303 86.381657,342.776692 88.325,337.79 C90.268343,332.803308 93.0274821,328.513351 96.6025,324.92 C100.177518,321.326649 104.513308,318.54001 109.61,316.56 C114.706692,314.57999 120.426635,313.59 126.77,313.59 C133.260032,313.59 138.879143,314.55249 143.6275,316.4775 C148.375857,318.40251 152.399984,320.904985 155.7,323.985 L151.41,330.695 C150.566662,332.051673 149.44834,332.73 148.055,332.73 C147.174996,332.73 146.276671,332.43667 145.36,331.85 C144.186661,331.15333 142.985839,330.45667 141.7575,329.76 C140.529161,329.06333 139.172507,328.458336 137.6875,327.945 C136.202493,327.431664 134.534176,327.010002 132.6825,326.68 C130.830824,326.349998 128.695012,326.185 126.275,326.185 C122.351647,326.185 118.804183,326.844993 115.6325,328.165 C112.460817,329.485007 109.756678,331.373321 107.52,333.83 C105.283322,336.286679 103.560006,339.238316 102.35,342.685 C101.139994,346.131684 100.535,349.981645 100.535,354.235 C100.535,358.818356 101.17666,362.897482 102.46,366.4725 C103.74334,370.047518 105.539988,373.063321 107.85,375.52 C110.160012,377.976679 112.909984,379.855827 116.1,381.1575 C119.290016,382.459173 122.773314,383.11 126.55,383.11 Z M167.99,394 L167.99,337.57 L175.965,337.57 C177.35834,337.57 178.329997,337.826664 178.88,338.34 C179.430003,338.853336 179.796666,339.733327 179.98,340.98 L180.805,347.8 C182.821677,344.316649 185.186653,341.566677 187.9,339.55 C190.613347,337.533323 193.65665,336.525 197.03,336.525 C199.816681,336.525 202.126657,337.16666 203.96,338.45 L202.2,348.625 C202.089999,349.285003 201.851668,349.752499 201.485,350.0275 C201.118331,350.302501 200.623336,350.44 200,350.44 C199.449997,350.44 198.698338,350.311668 197.745,350.055 C196.791662,349.798332 195.526675,349.67 193.95,349.67 C191.126653,349.67 188.706677,350.449159 186.69,352.0075 C184.673323,353.565841 182.96834,355.848318 181.575,358.855 L181.575,394 L167.99,394 Z M235.445,336.69 C239.001684,336.69 242.274152,337.258328 245.2625,338.395 C248.250848,339.531672 250.826656,341.190822 252.99,343.3725 C255.153344,345.554178 256.839994,348.230817 258.05,351.4025 C259.260006,354.574183 259.865,358.19498 259.865,362.265 C259.865,363.291672 259.819167,364.144163 259.7275,364.8225 C259.635833,365.500837 259.470835,366.032498 259.2325,366.4175 C258.994165,366.802502 258.673335,367.077499 258.27,367.2425 C257.866665,367.407501 257.353336,367.49 256.73,367.49 L221.86,367.49 C222.263335,373.283362 223.821653,377.536653 226.535,380.25 C229.248347,382.963347 232.841644,384.32 237.315,384.32 C239.515011,384.32 241.412492,384.063336 243.0075,383.55 C244.602508,383.036664 245.995827,382.468336 247.1875,381.845 C248.379173,381.221664 249.424162,380.653336 250.3225,380.14 C251.220838,379.626664 252.091662,379.37 252.935,379.37 C253.485003,379.37 253.961665,379.479999 254.365,379.7 C254.768335,379.920001 255.116665,380.231665 255.41,380.635 L259.37,385.585 C257.866659,387.345009 256.180009,388.820827 254.31,390.0125 C252.439991,391.204173 250.48751,392.157496 248.4525,392.8725 C246.41749,393.587504 244.345844,394.091665 242.2375,394.385 C240.129156,394.678335 238.08501,394.825 236.105,394.825 C232.181647,394.825 228.53335,394.174173 225.16,392.8725 C221.78665,391.570827 218.853346,389.645846 216.36,387.0975 C213.866654,384.549154 211.905007,381.395852 210.475,377.6375 C209.044993,373.879148 208.33,369.525025 208.33,364.575 C208.33,360.724981 208.953327,357.104184 210.2,353.7125 C211.446673,350.320816 213.234155,347.369179 215.5625,344.8575 C217.890845,342.345821 220.732483,340.356674 224.0875,338.89 C227.442517,337.423326 231.228312,336.69 235.445,336.69 Z M235.72,346.425 C231.75998,346.425 228.661678,347.543322 226.425,349.78 C224.188322,352.016678 222.758336,355.188313 222.135,359.295 L247.655,359.295 C247.655,357.534991 247.416669,355.875841 246.94,354.3175 C246.463331,352.759159 245.730005,351.393339 244.74,350.22 C243.749995,349.046661 242.503341,348.120837 241,347.4425 C239.496659,346.764163 237.736677,346.425 235.72,346.425 Z M314.34,394 L308.235,394 C306.95166,394 305.943337,393.807502 305.21,393.4225 C304.476663,393.037498 303.926668,392.258339 303.56,391.085 L302.35,387.07 C300.919993,388.35334 299.517507,389.480828 298.1425,390.4525 C296.767493,391.424172 295.346674,392.239997 293.88,392.9 C292.413326,393.560003 290.855008,394.054998 289.205,394.385 C287.554992,394.715002 285.721677,394.88 283.705,394.88 C281.321655,394.88 279.121677,394.55917 277.105,393.9175 C275.088323,393.27583 273.355841,392.31334 271.9075,391.03 C270.459159,389.74666 269.331671,388.151676 268.525,386.245 C267.718329,384.338324 267.315,382.120013 267.315,379.59 C267.315,377.463323 267.874161,375.364177 268.9925,373.2925 C270.110839,371.220823 271.971654,369.350842 274.575,367.6825 C277.178346,366.014158 280.643312,364.630006 284.97,363.53 C289.296688,362.429995 294.668301,361.806667 301.085,361.66 L301.085,358.36 C301.085,354.583314 300.287508,351.787509 298.6925,349.9725 C297.097492,348.157491 294.778349,347.25 291.735,347.25 C289.534989,347.25 287.701674,347.506664 286.235,348.02 C284.768326,348.533336 283.494172,349.11083 282.4125,349.7525 C281.330828,350.39417 280.331671,350.971664 279.415,351.485 C278.498329,351.998336 277.490005,352.255 276.39,352.255 C275.473329,352.255 274.685003,352.016669 274.025,351.54 C273.364997,351.063331 272.833335,350.47667 272.43,349.78 L269.955,345.435 C276.445032,339.49497 284.273287,336.525 293.44,336.525 C296.740016,336.525 299.682487,337.065828 302.2675,338.1475 C304.852513,339.229172 307.043324,340.73249 308.84,342.6575 C310.636676,344.58251 312.002495,346.88332 312.9375,349.56 C313.872505,352.23668 314.34,355.169984 314.34,358.36 L314.34,394 Z M287.94,385.53 C289.33334,385.53 290.616661,385.401668 291.79,385.145 C292.963339,384.888332 294.072495,384.503336 295.1175,383.99 C296.162505,383.476664 297.170828,382.84417 298.1425,382.0925 C299.114171,381.34083 300.094995,380.451672 301.085,379.425 L301.085,369.91 C297.12498,370.093334 293.815847,370.432498 291.1575,370.9275 C288.499153,371.422502 286.363341,372.054996 284.75,372.825 C283.136659,373.595004 281.990837,374.493328 281.3125,375.52 C280.634163,376.546672 280.295,377.664994 280.295,378.875 C280.295,381.258345 281.000826,382.963328 282.4125,383.99 C283.824174,385.016672 285.666655,385.53 287.94,385.53 Z M345.44,394.88 C340.563309,394.88 336.805013,393.495847 334.165,390.7275 C331.524987,387.959153 330.205,384.136691 330.205,379.26 L330.205,347.745 L324.485,347.745 C323.751663,347.745 323.119169,347.506669 322.5875,347.03 C322.055831,346.553331 321.79,345.838338 321.79,344.885 L321.79,339.495 L330.865,338.01 L333.725,322.61 C333.871667,321.876663 334.210831,321.308335 334.7425,320.905 C335.274169,320.501665 335.943329,320.3 336.75,320.3 L343.79,320.3 L343.79,338.065 L358.64,338.065 L358.64,347.745 L343.79,347.745 L343.79,378.325 C343.79,380.085009 344.229996,381.459995 345.11,382.45 C345.990004,383.440005 347.163326,383.935 348.63,383.935 C349.473338,383.935 350.179164,383.834168 350.7475,383.6325 C351.315836,383.430832 351.810831,383.220001 352.2325,383 C352.654169,382.779999 353.029998,382.569168 353.36,382.3675 C353.690002,382.165832 354.019998,382.065 354.35,382.065 C354.753335,382.065 355.083332,382.165832 355.34,382.3675 C355.596668,382.569168 355.871665,382.871665 356.165,383.275 L360.235,389.875 C358.25499,391.525008 355.981679,392.771662 353.415,393.615 C350.84832,394.458338 348.190014,394.88 345.44,394.88 Z M444.545,375.245 C445.351671,375.245 446.04833,375.556664 446.635,376.18 L452.465,382.505 C449.238317,386.501687 445.26919,389.563323 440.5575,391.69 C435.84581,393.816677 430.190033,394.88 423.59,394.88 C417.686637,394.88 412.37919,393.871677 407.6675,391.855 C402.95581,389.838323 398.931683,387.033351 395.595,383.44 C392.258317,379.846649 389.700842,375.556692 387.9225,370.57 C386.144158,365.583308 385.255,360.138363 385.255,354.235 C385.255,348.258303 386.24499,342.785858 388.225,337.8175 C390.20501,332.849142 392.991649,328.568351 396.585,324.975 C400.178351,321.381649 404.477475,318.585843 409.4825,316.5875 C414.487525,314.589157 420.01497,313.59 426.065,313.59 C431.968363,313.59 437.129145,314.534157 441.5475,316.4225 C445.965855,318.310843 449.751651,320.813318 452.905,323.93 L447.955,330.805 C447.661665,331.245002 447.285836,331.629998 446.8275,331.96 C446.369164,332.290002 445.736671,332.455 444.93,332.455 C444.086662,332.455 443.225004,332.125003 442.345,331.465 C441.464996,330.804997 440.346673,330.090004 438.99,329.32 C437.633326,328.549996 435.919177,327.835003 433.8475,327.175 C431.775823,326.514997 429.145016,326.185 425.955,326.185 C422.214981,326.185 418.777516,326.835827 415.6425,328.1375 C412.507484,329.439173 409.812511,331.299988 407.5575,333.72 C405.302489,336.140012 403.542506,339.082483 402.2775,342.5475 C401.012494,346.012517 400.38,349.908312 400.38,354.235 C400.38,358.708356 401.012494,362.686649 402.2775,366.17 C403.542506,369.653351 405.256656,372.586655 407.42,374.97 C409.583344,377.353345 412.131652,379.177494 415.065,380.4425 C417.998348,381.707506 421.15165,382.34 424.525,382.34 C426.541677,382.34 428.365825,382.230001 429.9975,382.01 C431.629175,381.789999 433.132493,381.441669 434.5075,380.965 C435.882507,380.488331 437.18416,379.87417 438.4125,379.1225 C439.640839,378.37083 440.859994,377.445005 442.07,376.345 C442.436668,376.014998 442.821665,375.749168 443.225,375.5475 C443.628335,375.345832 444.068331,375.245 444.545,375.245 Z M476.525,337.57 L476.525,394 L462.94,394 L462.94,337.57 L476.525,337.57 Z M478.56,321.125 C478.56,322.298339 478.321669,323.398328 477.845,324.425 C477.368331,325.451672 476.735837,326.349996 475.9475,327.12 C475.159163,327.890004 474.233339,328.504164 473.17,328.9625 C472.106661,329.420836 470.970006,329.65 469.76,329.65 C468.586661,329.65 467.477505,329.420836 466.4325,328.9625 C465.387495,328.504164 464.480004,327.890004 463.71,327.12 C462.939996,326.349996 462.325836,325.451672 461.8675,324.425 C461.409164,323.398328 461.18,322.298339 461.18,321.125 C461.18,319.914994 461.409164,318.778339 461.8675,317.715 C462.325836,316.651661 462.939996,315.735004 463.71,314.965 C464.480004,314.194996 465.387495,313.580836 466.4325,313.1225 C467.477505,312.664164 468.586661,312.435 469.76,312.435 C470.970006,312.435 472.106661,312.664164 473.17,313.1225 C474.233339,313.580836 475.159163,314.194996 475.9475,314.965 C476.735837,315.735004 477.368331,316.651661 477.845,317.715 C478.321669,318.778339 478.56,319.914994 478.56,321.125 Z M509.605,394.88 C504.728309,394.88 500.970013,393.495847 498.33,390.7275 C495.689987,387.959153 494.37,384.136691 494.37,379.26 L494.37,347.745 L488.65,347.745 C487.916663,347.745 487.284169,347.506669 486.7525,347.03 C486.220831,346.553331 485.955,345.838338 485.955,344.885 L485.955,339.495 L495.03,338.01 L497.89,322.61 C498.036667,321.876663 498.375831,321.308335 498.9075,320.905 C499.439169,320.501665 500.108329,320.3 500.915,320.3 L507.955,320.3 L507.955,338.065 L522.805,338.065 L522.805,347.745 L507.955,347.745 L507.955,378.325 C507.955,380.085009 508.394996,381.459995 509.275,382.45 C510.155004,383.440005 511.328326,383.935 512.795,383.935 C513.638337,383.935 514.344164,383.834168 514.9125,383.6325 C515.480836,383.430832 515.975831,383.220001 516.3975,383 C516.819169,382.779999 517.194998,382.569168 517.525,382.3675 C517.855002,382.165832 518.184998,382.065 518.515,382.065 C518.918335,382.065 519.248332,382.165832 519.505,382.3675 C519.761668,382.569168 520.036665,382.871665 520.33,383.275 L524.4,389.875 C522.41999,391.525008 520.146679,392.771662 517.58,393.615 C515.01332,394.458338 512.355014,394.88 509.605,394.88 Z M552.86,409.51 C552.456665,410.463338 551.93417,411.187498 551.2925,411.6825 C550.65083,412.177502 549.670006,412.425 548.35,412.425 L538.23,412.425 L548.79,389.82 L525.965,337.57 L537.845,337.57 C538.945005,337.57 539.78833,337.826664 540.375,338.34 C540.961669,338.853336 541.401665,339.439997 541.695,340.1 L553.74,369.36 C554.143335,370.313338 554.491665,371.303328 554.785,372.33 C555.078335,373.356672 555.334999,374.383328 555.555,375.41 C555.848335,374.346661 556.169165,373.320005 556.5175,372.33 C556.865835,371.339995 557.241665,370.331672 557.645,369.305 L568.975,340.1 C569.268335,339.366663 569.754163,338.761669 570.4325,338.285 C571.110837,337.808331 571.871662,337.57 572.715,337.57 L583.605,337.57 L552.86,409.51 Z M82.66,446.47 L95.09,446.47 C96.3733398,446.47 97.445829,446.772497 98.3075,447.3775 C99.169171,447.982503 99.7466652,448.798328 100.04,449.825 L113.57,497.4 C113.900002,498.573339 114.202499,499.847493 114.4775,501.2225 C114.752501,502.597507 115.018332,504.054992 115.275,505.595 C115.568335,504.054992 115.889165,502.597507 116.2375,501.2225 C116.585835,499.847493 116.961665,498.573339 117.365,497.4 L132.985,449.825 C133.278335,448.981662 133.855829,448.21167 134.7175,447.515 C135.579171,446.81833 136.633327,446.47 137.88,446.47 L142.225,446.47 C143.50834,446.47 144.571662,446.772497 145.415,447.3775 C146.258338,447.982503 146.844998,448.798328 147.175,449.825 L162.685,497.4 C163.491671,499.746678 164.18833,502.349986 164.775,505.21 C165.031668,503.779993 165.297499,502.405007 165.5725,501.085 C165.847501,499.764993 166.131665,498.536672 166.425,497.4 L179.955,449.825 C180.211668,448.908329 180.779996,448.120003 181.66,447.46 C182.540004,446.799997 183.603327,446.47 184.85,446.47 L196.455,446.47 L171.76,526 L158.395,526 L141.015,471.66 C140.794999,470.96333 140.565835,470.211671 140.3275,469.405 C140.089165,468.598329 139.860001,467.736671 139.64,466.82 C139.419999,467.736671 139.190835,468.598329 138.9525,469.405 C138.714165,470.211671 138.485001,470.96333 138.265,471.66 L120.72,526 L107.355,526 L82.66,446.47 Z M224.64,468.69 C228.196684,468.69 231.469152,469.258328 234.4575,470.395 C237.445848,471.531672 240.021656,473.190822 242.185,475.3725 C244.348344,477.554178 246.034994,480.230817 247.245,483.4025 C248.455006,486.574183 249.06,490.19498 249.06,494.265 C249.06,495.291672 249.014167,496.144163 248.9225,496.8225 C248.830833,497.500837 248.665835,498.032498 248.4275,498.4175 C248.189165,498.802502 247.868335,499.077499 247.465,499.2425 C247.061665,499.407501 246.548336,499.49 245.925,499.49 L211.055,499.49 C211.458335,505.283362 213.016653,509.536653 215.73,512.25 C218.443347,514.963347 222.036644,516.32 226.51,516.32 C228.710011,516.32 230.607492,516.063336 232.2025,515.55 C233.797508,515.036664 235.190827,514.468336 236.3825,513.845 C237.574173,513.221664 238.619162,512.653336 239.5175,512.14 C240.415838,511.626664 241.286662,511.37 242.13,511.37 C242.680003,511.37 243.156665,511.479999 243.56,511.7 C243.963335,511.920001 244.311665,512.231665 244.605,512.635 L248.565,517.585 C247.061659,519.345009 245.375009,520.820827 243.505,522.0125 C241.634991,523.204173 239.68251,524.157496 237.6475,524.8725 C235.61249,525.587504 233.540844,526.091665 231.4325,526.385 C229.324156,526.678335 227.28001,526.825 225.3,526.825 C221.376647,526.825 217.72835,526.174173 214.355,524.8725 C210.98165,523.570827 208.048346,521.645846 205.555,519.0975 C203.061654,516.549154 201.100007,513.395852 199.67,509.6375 C198.239993,505.879148 197.525,501.525025 197.525,496.575 C197.525,492.724981 198.148327,489.104184 199.395,485.7125 C200.641673,482.320816 202.429155,479.369179 204.7575,476.8575 C207.085845,474.345821 209.927483,472.356674 213.2825,470.89 C216.637517,469.423326 220.423312,468.69 224.64,468.69 Z M224.915,478.425 C220.95498,478.425 217.856678,479.543322 215.62,481.78 C213.383322,484.016678 211.953336,487.188313 211.33,491.295 L236.85,491.295 C236.85,489.534991 236.611669,487.875841 236.135,486.3175 C235.658331,484.759159 234.925005,483.393339 233.935,482.22 C232.944995,481.046661 231.698341,480.120837 230.195,479.4425 C228.691659,478.764163 226.931677,478.425 224.915,478.425 Z M259.48,526 L259.48,444.27 L273.065,444.27 L273.065,476.5 C275.301678,474.116655 277.831653,472.219174 280.655,470.8075 C283.478347,469.395826 286.778314,468.69 290.555,468.69 C293.635015,468.69 296.449154,469.322494 298.9975,470.5875 C301.545846,471.852506 303.745824,473.694988 305.5975,476.115 C307.449176,478.535012 308.879162,481.523316 309.8875,485.08 C310.895838,488.636684 311.4,492.724977 311.4,497.345 C311.4,501.561688 310.831672,505.466649 309.695,509.06 C308.558328,512.653351 306.935844,515.769987 304.8275,518.41 C302.719156,521.050013 300.170848,523.112493 297.1825,524.5975 C294.194152,526.082507 290.848352,526.825 287.145,526.825 C285.421658,526.825 283.845007,526.650835 282.415,526.3025 C280.984993,525.954165 279.683339,525.468336 278.51,524.845 C277.336661,524.221664 276.245838,523.460838 275.2375,522.5625 C274.229162,521.664162 273.266671,520.665006 272.35,519.565 L271.745,523.36 C271.524999,524.313338 271.149169,524.991665 270.6175,525.395 C270.085831,525.798335 269.361671,526 268.445,526 L259.48,526 Z M285.88,479.25 C283.056653,479.25 280.645843,479.845827 278.6475,481.0375 C276.649157,482.229173 274.788342,483.906656 273.065,486.07 L273.065,511.37 C274.605008,513.276676 276.282491,514.60583 278.0975,515.3575 C279.912509,516.10917 281.883323,516.485 284.01,516.485 C286.063344,516.485 287.914992,516.100004 289.565,515.33 C291.215008,514.559996 292.617494,513.386675 293.7725,511.81 C294.927506,510.233325 295.816664,508.244179 296.44,505.8425 C297.063336,503.440821 297.375,500.60835 297.375,497.345 C297.375,494.044984 297.109169,491.249178 296.5775,488.9575 C296.045831,486.665822 295.285005,484.805007 294.295,483.375 C293.304995,481.944993 292.104174,480.900003 290.6925,480.24 C289.280826,479.579997 287.676676,479.25 285.88,479.25 Z M354.71,480.57 C354.343331,481.15667 353.958335,481.569165 353.555,481.8075 C353.151665,482.045835 352.638336,482.165 352.015,482.165 C351.354997,482.165 350.64917,481.981668 349.8975,481.615 C349.14583,481.248331 348.275005,480.835836 347.285,480.3775 C346.294995,479.919164 345.167506,479.506668 343.9025,479.14 C342.637494,478.773331 341.143342,478.59 339.42,478.59 C336.74332,478.59 334.635008,479.158328 333.095,480.295 C331.554992,481.431672 330.785,482.916657 330.785,484.75 C330.785,485.960006 331.179163,486.977496 331.9675,487.8025 C332.755837,488.627504 333.800827,489.351664 335.1025,489.975 C336.404173,490.598336 337.879992,491.157498 339.53,491.6525 C341.180008,492.147502 342.866658,492.68833 344.59,493.275 C346.313342,493.86167 347.999992,494.53083 349.65,495.2825 C351.300008,496.03417 352.775827,496.987494 354.0775,498.1425 C355.379173,499.297506 356.424163,500.681659 357.2125,502.295 C358.000837,503.908341 358.395,505.851655 358.395,508.125 C358.395,510.838347 357.900005,513.340822 356.91,515.6325 C355.919995,517.924178 354.471676,519.904158 352.565,521.5725 C350.658324,523.240842 348.302514,524.542495 345.4975,525.4775 C342.692486,526.412505 339.475018,526.88 335.845,526.88 C333.901657,526.88 332.004176,526.705835 330.1525,526.3575 C328.300824,526.009165 326.522508,525.523336 324.8175,524.9 C323.112491,524.276664 321.535841,523.543338 320.0875,522.7 C318.639159,521.856662 317.365005,520.940005 316.265,519.95 L319.4,514.78 C319.803335,514.156664 320.279997,513.680002 320.83,513.35 C321.380003,513.019998 322.076662,512.855 322.92,512.855 C323.763338,512.855 324.56083,513.093331 325.3125,513.57 C326.06417,514.046669 326.934995,514.559997 327.925,515.11 C328.915005,515.660003 330.07916,516.173331 331.4175,516.65 C332.75584,517.126669 334.451656,517.365 336.505,517.365 C338.118341,517.365 339.502494,517.172502 340.6575,516.7875 C341.812506,516.402498 342.76583,515.898336 343.5175,515.275 C344.26917,514.651664 344.819165,513.927504 345.1675,513.1025 C345.515835,512.277496 345.69,511.425004 345.69,510.545 C345.69,509.224993 345.295837,508.143338 344.5075,507.3 C343.719163,506.456662 342.674173,505.723336 341.3725,505.1 C340.070827,504.476664 338.585842,503.917502 336.9175,503.4225 C335.249158,502.927498 333.544175,502.38667 331.8025,501.8 C330.060825,501.21333 328.355842,500.525837 326.6875,499.7375 C325.019158,498.949163 323.534173,497.950006 322.2325,496.74 C320.930827,495.529994 319.885837,494.045009 319.0975,492.285 C318.309163,490.524991 317.915,488.398346 317.915,485.905 C317.915,483.594988 318.373329,481.39501 319.29,479.305 C320.206671,477.21499 321.554158,475.390841 323.3325,473.8325 C325.110842,472.274159 327.329153,471.027505 329.9875,470.0925 C332.645847,469.157495 335.716649,468.69 339.2,468.69 C343.086686,468.69 346.624984,469.33166 349.815,470.615 C353.005016,471.89834 355.663323,473.58499 357.79,475.675 L354.71,480.57 Z M382.95,469.57 L382.95,526 L369.365,526 L369.365,469.57 L382.95,469.57 Z M384.985,453.125 C384.985,454.298339 384.746669,455.398328 384.27,456.425 C383.793331,457.451672 383.160837,458.349996 382.3725,459.12 C381.584163,459.890004 380.658339,460.504164 379.595,460.9625 C378.531661,461.420836 377.395006,461.65 376.185,461.65 C375.011661,461.65 373.902505,461.420836 372.8575,460.9625 C371.812495,460.504164 370.905004,459.890004 370.135,459.12 C369.364996,458.349996 368.750836,457.451672 368.2925,456.425 C367.834164,455.398328 367.605,454.298339 367.605,453.125 C367.605,451.914994 367.834164,450.778339 368.2925,449.715 C368.750836,448.651661 369.364996,447.735004 370.135,446.965 C370.905004,446.194996 371.812495,445.580836 372.8575,445.1225 C373.902505,444.664164 375.011661,444.435 376.185,444.435 C377.395006,444.435 378.531661,444.664164 379.595,445.1225 C380.658339,445.580836 381.584163,446.194996 382.3725,446.965 C383.160837,447.735004 383.793331,448.651661 384.27,449.715 C384.746669,450.778339 384.985,451.914994 384.985,453.125 Z M416.03,526.88 C411.153309,526.88 407.395013,525.495847 404.755,522.7275 C402.114987,519.959153 400.795,516.136691 400.795,511.26 L400.795,479.745 L395.075,479.745 C394.341663,479.745 393.709169,479.506669 393.1775,479.03 C392.645831,478.553331 392.38,477.838338 392.38,476.885 L392.38,471.495 L401.455,470.01 L404.315,454.61 C404.461667,453.876663 404.800831,453.308335 405.3325,452.905 C405.864169,452.501665 406.533329,452.3 407.34,452.3 L414.38,452.3 L414.38,470.065 L429.23,470.065 L429.23,479.745 L414.38,479.745 L414.38,510.325 C414.38,512.085009 414.819996,513.459995 415.7,514.45 C416.580004,515.440005 417.753326,515.935 419.22,515.935 C420.063337,515.935 420.769164,515.834168 421.3375,515.6325 C421.905836,515.430832 422.400831,515.220001 422.8225,515 C423.244169,514.779999 423.619998,514.569168 423.95,514.3675 C424.280002,514.165832 424.609998,514.065 424.94,514.065 C425.343335,514.065 425.673332,514.165832 425.93,514.3675 C426.186668,514.569168 426.461665,514.871665 426.755,515.275 L430.825,521.875 C428.84499,523.525008 426.571679,524.771662 424.005,525.615 C421.43832,526.458338 418.780014,526.88 416.03,526.88 Z M462.585,468.69 C466.141684,468.69 469.414152,469.258328 472.4025,470.395 C475.390848,471.531672 477.966656,473.190822 480.13,475.3725 C482.293344,477.554178 483.979994,480.230817 485.19,483.4025 C486.400006,486.574183 487.005,490.19498 487.005,494.265 C487.005,495.291672 486.959167,496.144163 486.8675,496.8225 C486.775833,497.500837 486.610834,498.032498 486.3725,498.4175 C486.134165,498.802502 485.813335,499.077499 485.41,499.2425 C485.006665,499.407501 484.493336,499.49 483.87,499.49 L449,499.49 C449.403335,505.283362 450.961653,509.536653 453.675,512.25 C456.388347,514.963347 459.981644,516.32 464.455,516.32 C466.655011,516.32 468.552492,516.063336 470.1475,515.55 C471.742508,515.036664 473.135827,514.468336 474.3275,513.845 C475.519173,513.221664 476.564162,512.653336 477.4625,512.14 C478.360838,511.626664 479.231662,511.37 480.075,511.37 C480.625003,511.37 481.101665,511.479999 481.505,511.7 C481.908335,511.920001 482.256665,512.231665 482.55,512.635 L486.51,517.585 C485.006659,519.345009 483.320009,520.820827 481.45,522.0125 C479.579991,523.204173 477.62751,524.157496 475.5925,524.8725 C473.55749,525.587504 471.485844,526.091665 469.3775,526.385 C467.269156,526.678335 465.22501,526.825 463.245,526.825 C459.321647,526.825 455.67335,526.174173 452.3,524.8725 C448.92665,523.570827 445.993346,521.645846 443.5,519.0975 C441.006654,516.549154 439.045007,513.395852 437.615,509.6375 C436.184993,505.879148 435.47,501.525025 435.47,496.575 C435.47,492.724981 436.093327,489.104184 437.34,485.7125 C438.586673,482.320816 440.374155,479.369179 442.7025,476.8575 C445.030845,474.345821 447.872483,472.356674 451.2275,470.89 C454.582517,469.423326 458.368312,468.69 462.585,468.69 Z M462.86,478.425 C458.89998,478.425 455.801678,479.543322 453.565,481.78 C451.328322,484.016678 449.898336,487.188313 449.275,491.295 L474.795,491.295 C474.795,489.534991 474.556669,487.875841 474.08,486.3175 C473.603331,484.759159 472.870005,483.393339 471.88,482.22 C470.889995,481.046661 469.643341,480.120837 468.14,479.4425 C466.636659,478.764163 464.876677,478.425 462.86,478.425 Z M530.755,480.57 C530.388331,481.15667 530.003335,481.569165 529.6,481.8075 C529.196665,482.045835 528.683336,482.165 528.06,482.165 C527.399997,482.165 526.69417,481.981668 525.9425,481.615 C525.190829,481.248331 524.320005,480.835836 523.33,480.3775 C522.339995,479.919164 521.212506,479.506668 519.9475,479.14 C518.682494,478.773331 517.188342,478.59 515.465,478.59 C512.78832,478.59 510.680008,479.158328 509.14,480.295 C507.599992,481.431672 506.83,482.916657 506.83,484.75 C506.83,485.960006 507.224163,486.977496 508.0125,487.8025 C508.800837,488.627504 509.845827,489.351664 511.1475,489.975 C512.449173,490.598336 513.924992,491.157498 515.575,491.6525 C517.225008,492.147502 518.911658,492.68833 520.635,493.275 C522.358342,493.86167 524.044992,494.53083 525.695,495.2825 C527.345008,496.03417 528.820827,496.987494 530.1225,498.1425 C531.424173,499.297506 532.469163,500.681659 533.2575,502.295 C534.045837,503.908341 534.44,505.851655 534.44,508.125 C534.44,510.838347 533.945005,513.340822 532.955,515.6325 C531.964995,517.924178 530.516676,519.904158 528.61,521.5725 C526.703324,523.240842 524.347514,524.542495 521.5425,525.4775 C518.737486,526.412505 515.520018,526.88 511.89,526.88 C509.946657,526.88 508.049176,526.705835 506.1975,526.3575 C504.345824,526.009165 502.567508,525.523336 500.8625,524.9 C499.157491,524.276664 497.58084,523.543338 496.1325,522.7 C494.684159,521.856662 493.410005,520.940005 492.31,519.95 L495.445,514.78 C495.848335,514.156664 496.324997,513.680002 496.875,513.35 C497.425003,513.019998 498.121662,512.855 498.965,512.855 C499.808337,512.855 500.605829,513.093331 501.3575,513.57 C502.10917,514.046669 502.979995,514.559997 503.97,515.11 C504.960005,515.660003 506.12416,516.173331 507.4625,516.65 C508.80084,517.126669 510.496656,517.365 512.55,517.365 C514.163341,517.365 515.547494,517.172502 516.7025,516.7875 C517.857506,516.402498 518.810829,515.898336 519.5625,515.275 C520.31417,514.651664 520.864165,513.927504 521.2125,513.1025 C521.560835,512.277496 521.735,511.425004 521.735,510.545 C521.735,509.224993 521.340837,508.143338 520.5525,507.3 C519.764163,506.456662 518.719173,505.723336 517.4175,505.1 C516.115827,504.476664 514.630842,503.917502 512.9625,503.4225 C511.294158,502.927498 509.589175,502.38667 507.8475,501.8 C506.105825,501.21333 504.400842,500.525837 502.7325,499.7375 C501.064158,498.949163 499.579173,497.950006 498.2775,496.74 C496.975827,495.529994 495.930837,494.045009 495.1425,492.285 C494.354163,490.524991 493.96,488.398346 493.96,485.905 C493.96,483.594988 494.418329,481.39501 495.335,479.305 C496.251671,477.21499 497.599158,475.390841 499.3775,473.8325 C501.155842,472.274159 503.374153,471.027505 506.0325,470.0925 C508.690847,469.157495 511.761649,468.69 515.245,468.69 C519.131686,468.69 522.669984,469.33166 525.86,470.615 C529.050016,471.89834 531.708323,473.58499 533.835,475.675 L530.755,480.57 Z" id="Guide-to-" fill="#FFFFFF" sketch:type="MSShapeGroup"></path>
    </g>
</svg>